<svg viewBox="0 0 200 140" fill="none" xmlns="http://www.w3.org/2000/svg">
    <g clip-path="url(#clip0_45_117)">
        <path d="M200 -27H0V166H200V-27Z" fill="#FFC106"/>
        <path fill-rule="evenodd" clip-rule="evenodd" d="M125.339 68.6223C125.623 68.7694 125.855 68.9935 126.007 69.2668L155.426 122.017C155.856 122.788 155.557 123.749 154.758 124.164C154.518 124.288 154.25 124.353 153.978 124.353L121.676 124.314C122.48 123.368 122.721 121.938 122.398 120.023C117.703 111.657 113.062 103.488 108.477 95.5151L123.115 69.2668C123.545 68.4961 124.541 68.2075 125.339 68.6223ZM81.1712 56.0964C81.4523 56.2438 81.6827 56.4671 81.834 56.7391L118.148 121.979C118.577 122.75 118.277 123.711 117.478 124.125C117.239 124.249 116.972 124.314 116.701 124.314H43.6636C42.7567 124.314 42.0215 123.604 42.0215 122.729C42.0215 122.465 42.0899 122.205 42.2206 121.973L78.9443 56.7325C79.3772 55.9635 80.3742 55.6787 81.1712 56.0964ZM145.265 15.647C145.786 15.647 146.276 15.8856 146.586 16.2899L157.657 30.7485C158.133 31.3705 158.075 32.2334 157.518 32.7902L139.767 50.5577C139.137 51.1877 138.098 51.2061 137.445 50.5986C137.424 50.5792 137.404 50.5593 137.384 50.5388L120.214 32.7798C119.679 32.2256 119.624 31.383 120.085 30.7692L124.221 25.2583C124.53 24.8468 125.024 24.6031 125.551 24.6031H139.835C140.361 24.6031 140.856 24.8468 141.165 25.2583L145.287 30.7506C145.754 31.3727 145.691 32.2283 145.138 32.7809L139.993 37.9227C139.368 38.5467 138.34 38.5703 137.686 37.9755L137.221 37.5535C136.561 36.9534 136.53 35.9505 137.152 35.3134C137.158 35.3069 137.165 35.3004 137.171 35.294L139.697 32.7929C140.259 32.2356 140.32 31.3666 139.839 30.742L138.497 28.9987C138.187 28.5962 137.698 28.3589 137.178 28.3589H127.998C127.45 28.3589 126.939 28.6222 126.634 29.061L125.45 30.764C125.02 31.3836 125.096 32.2092 125.632 32.7463L137.397 44.5242C138.027 45.1543 139.066 45.1728 139.719 44.5654C139.729 44.5564 139.738 44.5473 139.748 44.5381L151.799 32.7644C152.356 32.2206 152.431 31.3708 151.978 30.7439L144.476 20.3695C144.169 19.9448 143.666 19.6917 143.129 19.6917H122.261C121.722 19.6917 121.217 19.9472 120.91 20.3753L113.464 30.7713C113.023 31.3863 113.088 32.2148 113.619 32.759L134.458 54.1046C135.068 54.7295 135.051 55.7097 134.42 56.315L133.747 56.9604C133.104 57.5775 132.064 57.5745 131.425 56.9539C131.412 56.9411 131.399 56.9281 131.386 56.9149L108.149 32.7644C107.623 32.2169 107.564 31.3888 108.008 30.7769L118.501 16.3225C118.808 15.8991 119.31 15.647 119.846 15.647H145.265Z" fill="white"/>
    </g>
    <defs>
        <clipPath id="clip0_45_117">
            <rect width="200" height="140" fill="white"/>
        </clipPath>
    </defs>
</svg>
